<svg width="500" height="150" viewBox="0 0 500 150" fill="none" xmlns="http://www.w3.org/2000/svg">
<rect width="500" height="150" fill="white"/>
<g clip-path="url(#clip0)">
<path d="M173.07 21.7486V48.3189H166.97V27.8568H133.42C128.845 29.0784 120 32.7432 120 37.3243V71.5297H113.9V37.3243C113.9 34.2703 106.58 29.9946 101.09 27.8568H65.1V107.568H96.82V113.676H59V21.7486H102.005L102.615 22.0541C104.75 22.6649 112.375 25.7189 116.645 30.3C121.525 24.8027 130.675 22.3595 131.895 22.0541H132.505H173.07V21.7486Z" fill="black"/>
<path d="M142.57 132H137.69L115.12 108.789H101.7V83.1351L115.12 82.8297L138.605 58.7027H142.57V132ZM107.8 102.681H117.56L136.165 121.922V69.6973L117.56 88.9378H107.495V102.681H107.8Z" fill="#0197F2"/>
<path d="M154.465 118.868L149.28 115.814C149.28 115.814 155.685 105.43 155.685 95.9622C155.685 85.8838 149.28 75.5 149.28 75.1946L154.465 72.1405C154.77 72.7514 161.785 84.0514 161.785 95.9622C161.785 106.957 154.77 118.562 154.465 118.868Z" fill="#0197F2"/>
<path d="M170.02 129.557L165.14 125.892C165.14 125.892 174.9 113.065 174.9 95.9622C174.9 78.8595 165.14 66.0324 165.14 66.0324L170.02 62.3676C170.325 62.9784 181 77.027 181 96.2676C181 115.203 170.325 128.946 170.02 129.557Z" fill="#0197F2"/>
</g>
<path d="M427.212 76.1051C428.356 74.9994 428.165 72.9721 427.212 71.8663L421.305 66.153L395.01 41.4571C393.867 40.3513 392.152 40.3513 390.818 41.4571C389.675 42.5629 389.294 44.5902 390.818 45.696L418.447 71.8663C419.591 72.9721 419.591 74.9994 418.447 76.1051L390.247 103.197C389.103 104.303 389.103 106.33 390.247 107.436C391.39 108.542 393.486 108.357 394.439 107.436L420.543 82.3713C420.543 82.3713 420.543 82.3713 420.734 82.187L427.212 76.1051Z" fill="#3999C6"/>
<path d="M306.788 76.1051C305.644 74.9994 305.835 72.9721 306.788 71.8663L312.695 66.153L338.99 41.4571C340.133 40.3513 341.848 40.3513 343.182 41.4571C344.325 42.5629 344.706 44.5902 343.182 45.696L316.124 71.8663C314.981 72.9721 314.981 74.9994 316.124 76.1051L343.753 103.197C344.897 104.303 344.897 106.33 343.753 107.436C342.61 108.542 340.514 108.357 339.561 107.436L312.885 82.7399C312.885 82.7399 312.885 82.7399 312.695 82.5556L306.788 76.1051Z" fill="#3999C6"/>
<path d="M396.725 21H359.569L339.561 75.5522L363.951 75.7365L344.897 129.736L397.487 57.6753H371.954L396.725 21Z" fill="#FCD116"/>
<path opacity="0.3" d="M371.954 57.6753L396.725 21H377.289L356.711 66.3373L381.1 66.5216L344.897 129.736L397.487 57.6753H371.954Z" fill="#FF8C00"/>
<path d="M262 74.25V75.75H250.75V87H249.25V75.75H238V74.25H249.25V63H250.75V74.25H262Z" fill="black"/>
<defs>
<clipPath id="clip0">
<rect x="59" y="19" width="122" height="113" fill="white"/>
</clipPath>
</defs>
</svg>
